<svg xmlns="http://www.w3.org/2000/svg" xmlns:xlink="http://www.w3.org/1999/xlink" width="114.916" height="30" viewBox="0 0 114.916 30">
  <defs>
    <clipPath id="clip-path">
      <rect id="Rectángulo_69" data-name="Rectángulo 69" width="30" height="30" fill="none"/>
    </clipPath>
  </defs>
  <g id="Grupo_215" data-name="Grupo 215" transform="translate(-4581.367 -3140)">
    <path id="Trazado_121" data-name="Trazado 121" d="M-38.15-9a9.3,9.3,0,0,1,.575-3.187,8.812,8.812,0,0,1,1.688-2.85,8.514,8.514,0,0,1,2.712-2.038,8.211,8.211,0,0,1,3.625-.775,7.691,7.691,0,0,1,4.15,1.075,6.985,6.985,0,0,1,2.6,2.8L-25-12.5a5.021,5.021,0,0,0-.9-1.35,4.386,4.386,0,0,0-1.15-.875,4.946,4.946,0,0,0-1.3-.462,6.511,6.511,0,0,0-1.3-.138,5.112,5.112,0,0,0-2.45.562,5.438,5.438,0,0,0-1.763,1.488A6.643,6.643,0,0,0-34.937-11.2,7.614,7.614,0,0,0-35.3-8.9a7.22,7.22,0,0,0,.425,2.475A6.706,6.706,0,0,0-33.687-4.35a5.841,5.841,0,0,0,1.813,1.438,4.973,4.973,0,0,0,2.3.537,5.806,5.806,0,0,0,1.337-.162,5,5,0,0,0,1.325-.525,5.31,5.31,0,0,0,1.175-.913A4.558,4.558,0,0,0-24.85-5.3l2.325,1.325a5.427,5.427,0,0,1-1.2,1.763,7.656,7.656,0,0,1-1.75,1.288,8.972,8.972,0,0,1-2.063.8A8.7,8.7,0,0,1-29.675.15,7.356,7.356,0,0,1-33.1-.65a8.995,8.995,0,0,1-2.675-2.088,9.618,9.618,0,0,1-1.75-2.925A9.289,9.289,0,0,1-38.15-9Zm29.6,9H-11.3V-7.325a4.493,4.493,0,0,0-.637-2.662,2.145,2.145,0,0,0-1.837-.863,3.136,3.136,0,0,0-1.15.225,4.132,4.132,0,0,0-1.087.637,4.851,4.851,0,0,0-.913.975,4.157,4.157,0,0,0-.6,1.237V0h-2.75V-18.25h2.75v7.8a5.427,5.427,0,0,1,2.038-2.1,5.489,5.489,0,0,1,2.813-.75,4.114,4.114,0,0,1,2.013.438A3.533,3.533,0,0,1-9.4-11.7a4.676,4.676,0,0,1,.662,1.688A10.644,10.644,0,0,1-8.55-7.975Zm6.675.25A4.869,4.869,0,0,1-3.637-.063a4.26,4.26,0,0,1-1.4-.863,4.022,4.022,0,0,1-.925-1.3A3.914,3.914,0,0,1-6.3-3.85a3.5,3.5,0,0,1,.4-1.675,3.915,3.915,0,0,1,1.137-1.3,5.521,5.521,0,0,1,1.75-.85,7.856,7.856,0,0,1,2.238-.3,10.25,10.25,0,0,1,1.825.163,9.191,9.191,0,0,1,1.625.437v-.9a3.031,3.031,0,0,0-.825-2.262A3.244,3.244,0,0,0-.525-11.35a5.727,5.727,0,0,0-2.062.387A10.434,10.434,0,0,0-4.675-9.85l-.85-1.75a9.271,9.271,0,0,1,5.25-1.7,5.987,5.987,0,0,1,4.2,1.375,5.089,5.089,0,0,1,1.5,3.95V-3.25q0,.875.725.9V0q-.4.075-.687.1T4.9.125a1.768,1.768,0,0,1-1.238-.4A1.71,1.71,0,0,1,3.125-1.3L3.05-2.125A5.83,5.83,0,0,1,.888-.363,6.349,6.349,0,0,1-1.875.25Zm.75-2.025A4.943,4.943,0,0,0,.763-2.138,3.254,3.254,0,0,0,2.15-3.15a1.268,1.268,0,0,0,.525-.95V-5.825A8.313,8.313,0,0,0,1.188-6.25,8.208,8.208,0,0,0-.35-6.4a4.2,4.2,0,0,0-2.412.637A1.954,1.954,0,0,0-3.7-4.075a2.13,2.13,0,0,0,.725,1.638A2.636,2.636,0,0,0-1.125-1.775Zm17.05,1.1a13.783,13.783,0,0,1-1.45.563A6.13,6.13,0,0,1,12.5.2,4.186,4.186,0,0,1,11.275.025,3,3,0,0,1,10.262-.5a2.384,2.384,0,0,1-.687-.912,3.344,3.344,0,0,1-.25-1.363V-10.95H7.6v-2.125H9.325v-4.3h2.75v4.3h2.85v2.125h-2.85v7.3a1.358,1.358,0,0,0,.438,1.013,1.484,1.484,0,0,0,.962.313,3.064,3.064,0,0,0,1.1-.2q.525-.2.775-.325Zm9.175,0a13.783,13.783,0,0,1-1.45.563A6.13,6.13,0,0,1,21.675.2,4.186,4.186,0,0,1,20.45.025,3,3,0,0,1,19.438-.5a2.384,2.384,0,0,1-.687-.912,3.344,3.344,0,0,1-.25-1.363V-10.95H16.775v-2.125H18.5v-4.3h2.75v4.3H24.1v2.125H21.25v7.3a1.358,1.358,0,0,0,.438,1.013,1.484,1.484,0,0,0,.962.313,3.064,3.064,0,0,0,1.1-.2q.525-.2.775-.325Zm2.35,3.75q.375.075.737.125a4.5,4.5,0,0,0,.587.05,1.1,1.1,0,0,0,.563-.138,1.676,1.676,0,0,0,.488-.488,5.046,5.046,0,0,0,.512-.987Q30.6,1,30.95,0L25.575-13.075H28.4l4.05,10.65,3.6-10.65h2.6l-5.925,16.1a4.073,4.073,0,0,1-1.388,1.887,4.033,4.033,0,0,1-2.537.763,5.457,5.457,0,0,1-.625-.037,4,4,0,0,1-.725-.162Z" transform="translate(4657.633 3163.25)" fill="#fff"/>
    <g id="Grupo_108" data-name="Grupo 108" transform="translate(4490.5 3088)">
      <circle id="Elipse_17" data-name="Elipse 17" cx="10" cy="10" r="10" transform="translate(96 58)" fill="#fff"/>
      <g id="Grupo_96" data-name="Grupo 96" transform="translate(90.867 52.001)">
        <g id="Grupo_95" data-name="Grupo 95" transform="translate(0 -0.001)" clip-path="url(#clip-path)">
          <path id="Trazado_79" data-name="Trazado 79" d="M30,15A15,15,0,1,0,15,30H29.417l-4.109-4.109A14.954,14.954,0,0,0,30,15M15,23.351a7.689,7.689,0,0,1-7.689-7.689H22.689A7.689,7.689,0,0,1,15,23.351" transform="translate(0 0)" fill="#5aa1fb"/>
        </g>
      </g>
    </g>
  </g>
</svg>
